<svg width="110" height="110" viewBox="0 0 110 110" fill="none" xmlns="http://www.w3.org/2000/svg">
<path d="M22.9328 64.9434C21.9488 65.2898 21.0161 65.745 20.1491 66.2945C16.2896 64.6977 12.6746 62.322 9.54161 59.1674C-3.18053 46.4882 -3.18053 25.8764 9.54161 13.1972C10.8431 11.8967 12.2097 10.7263 13.6739 9.686C16.1142 7.96292 19.9536 10.8564 19.6933 13.5548C18.8148 22.8529 21.9384 32.5086 29.0966 39.6284C31.8286 42.3707 34.929 44.5204 38.2399 46.0793C29.5468 47.5152 22.9167 55.0666 22.9167 64.1667C22.9167 64.4269 22.9221 64.6858 22.9328 64.9434Z" fill="white"/>
<path d="M48.2774 25.0328L50.6918 33.038C50.4537 33.2291 50.2191 33.4244 49.9882 33.6239L42.9515 28.849L34.8078 34.375L37.6256 25.0328L29.7916 19.1099L39.6692 18.8352L42.9515 9.67613L46.2337 18.8352L56.1114 19.1099L48.2774 25.0328Z" fill="white"/>
<path d="M76.1189 19.5984L81.197 15.7822L74.8184 15.6295L72.6818 9.67616L70.5453 15.6295L64.1666 15.7822L69.2448 19.5984L67.4178 25.6434L72.6818 22.0714L77.9458 25.6434L76.1189 19.5984Z" fill="white"/>
<path d="M32.0833 96.25H91.6667C101.792 96.25 110 88.0419 110 77.9167C110 69.3176 104.08 62.1013 96.093 60.1213C96.1967 59.1924 96.25 58.2482 96.25 57.2917C96.25 43.3695 84.9638 32.0833 71.0417 32.0833C59.4942 32.0833 49.7602 39.8476 46.7755 50.4405C46.4634 50.4247 46.1493 50.4167 45.8333 50.4167C35.7081 50.4167 27.5 58.6248 27.5 68.75C27.5 69.0102 27.5054 69.2691 27.5162 69.5267C22.1672 71.4097 18.3333 76.5071 18.3333 82.5C18.3333 90.0939 24.4894 96.25 32.0833 96.25Z" fill="white"/>
</svg>
